<svg width="325" height="48" viewBox="0 0 325 48" fill="none" xmlns="http://www.w3.org/2000/svg">
<g clip-path="url(#clip0_241_52)">
<mask id="mask0_241_52" style="mask-type:luminance" maskUnits="userSpaceOnUse" x="0" y="3" width="196" height="42">
<path d="M196 3H0V45H196V3Z" fill="white"/>
</mask>
<g mask="url(#mask0_241_52)">
<path d="M21.4736 21.7887C23.4002 21.7887 24.9619 20.2529 24.9619 18.3584C24.9619 16.4639 23.4002 14.9282 21.4736 14.9282C19.5471 14.9282 17.9854 16.4639 17.9854 18.3584C17.9854 20.2529 19.5471 21.7887 21.4736 21.7887Z" fill="#3C72FC"/>
<path d="M19.0076 20.7808L13.8709 15.7296C12.5079 14.3892 12.5079 12.2181 13.8709 10.8815C15.234 9.54113 17.4418 9.54113 18.8011 10.8815L23.9378 15.9327L19.0076 20.7808Z" fill="#3C72FC"/>
<path d="M9.6328 10.1432C11.5593 10.1432 13.1211 8.60744 13.1211 6.71298C13.1211 4.81849 11.5593 3.28271 9.6328 3.28271C7.7063 3.28271 6.14453 4.81849 6.14453 6.71298C6.14453 8.60744 7.7063 10.1432 9.6328 10.1432Z" fill="#3C72FC"/>
<path d="M15.5648 13.4117L9.72217 7.66627L10.6046 6.80225L16.4434 12.544L15.5648 13.4117Z" fill="#3C72FC"/>
<path d="M21.4678 21.7887C23.3944 21.7887 24.9561 20.2529 24.9561 18.3584C24.9561 16.4639 23.3944 14.9282 21.4678 14.9282C19.5413 14.9282 17.9795 16.4639 17.9795 18.3584C17.9795 20.2529 19.5413 21.7887 21.4678 21.7887Z" fill="#3C72FC"/>
<path d="M19.001 15.9327L24.1377 10.8815C25.5007 9.54113 27.7086 9.54113 29.0679 10.8815C30.431 12.2218 30.431 14.3929 29.0679 15.7296L23.9312 20.7808L19.001 15.9327Z" fill="#3C72FC"/>
<path d="M33.3119 10.1432C35.2385 10.1432 36.8004 8.60744 36.8004 6.71298C36.8004 4.81849 35.2385 3.28271 33.3119 3.28271C31.3855 3.28271 29.8237 4.81849 29.8237 6.71298C29.8237 8.60744 31.3855 10.1432 33.3119 10.1432Z" fill="#3C72FC"/>
<path d="M27.3819 13.4117L26.4995 12.544L32.342 6.80225L33.2208 7.66627L27.3819 13.4117Z" fill="#3C72FC"/>
<path d="M27.2295 27.4589C29.156 27.4589 30.7179 25.9231 30.7179 24.0286C30.7179 22.1342 29.156 20.5984 27.2295 20.5984C25.303 20.5984 23.7412 22.1342 23.7412 24.0286C23.7412 25.9231 25.303 27.4589 27.2295 27.4589Z" fill="#3C72FC"/>
<path d="M24.7593 21.6026L29.896 16.5514C31.259 15.211 33.4668 15.211 34.8262 16.5514C36.1891 17.8917 36.1891 20.0629 34.8262 21.3995L29.6895 26.4508L24.7593 21.6026Z" fill="#3C72FC"/>
<path d="M39.0702 15.8095C40.9968 15.8095 42.5584 14.2737 42.5584 12.3792C42.5584 10.4848 40.9968 8.94897 39.0702 8.94897C37.1435 8.94897 35.582 10.4848 35.582 12.3792C35.582 14.2737 37.1435 15.8095 39.0702 15.8095Z" fill="#3C72FC"/>
<path d="M33.1447 19.0816L32.2622 18.2139L38.1009 12.4685L38.9835 13.3362L33.1447 19.0816Z" fill="#3C72FC"/>
<path d="M27.2295 27.4594C29.156 27.4594 30.7179 25.9236 30.7179 24.0291C30.7179 22.1346 29.156 20.5989 27.2295 20.5989C25.303 20.5989 23.7412 22.1346 23.7412 24.0291C23.7412 25.9236 25.303 27.4594 27.2295 27.4594Z" fill="#3C72FC"/>
<path d="M29.6895 21.6035L34.83 26.6547C36.1929 27.9951 36.1929 30.1662 34.83 31.5029C33.4668 32.8431 31.259 32.8431 29.8999 31.5029L24.7593 26.4516L29.6895 21.6035Z" fill="#3C72FC"/>
<path d="M39.0702 39.1048C40.9968 39.1048 42.5584 37.5689 42.5584 35.6743C42.5584 33.78 40.9968 32.2441 39.0702 32.2441C37.1435 32.2441 35.582 33.78 35.582 35.6743C35.582 37.5689 37.1435 39.1048 39.0702 39.1048Z" fill="#3C72FC"/>
<path d="M38.1009 35.5874L32.2622 29.8419L33.1447 28.9741L38.9835 34.7195L38.1009 35.5874Z" fill="#3C72FC"/>
<path d="M21.2495 33.3541C23.176 33.3541 24.7377 31.8185 24.7377 29.924C24.7377 28.0295 23.176 26.4937 21.2495 26.4937C19.3229 26.4937 17.7612 28.0295 17.7612 29.924C17.7612 31.8185 19.3229 33.3541 21.2495 33.3541Z" fill="#3C72FC"/>
<path d="M23.7095 27.4973L28.8462 32.5485C30.2093 33.889 30.2093 36.0601 28.8462 37.3966C27.4832 38.7371 25.2753 38.7371 23.916 37.3966L18.7793 32.3454L23.7095 27.4973Z" fill="#3C72FC"/>
<path d="M33.0905 44.9996C35.0168 44.9996 36.5788 43.4637 36.5788 41.5694C36.5788 39.6748 35.0168 38.1389 33.0905 38.1389C31.1638 38.1389 29.6021 39.6748 29.6021 41.5694C29.6021 43.4637 31.1638 44.9996 33.0905 44.9996Z" fill="#3C72FC"/>
<path d="M32.1183 41.4813L26.2759 35.7394L27.1583 34.8718L33.0009 40.6134L32.1183 41.4813Z" fill="#3C72FC"/>
<path d="M21.2471 33.3541C23.1736 33.3541 24.7354 31.8185 24.7354 29.924C24.7354 28.0295 23.1736 26.4937 21.2471 26.4937C19.3206 26.4937 17.7588 28.0295 17.7588 29.924C17.7588 31.8185 19.3206 33.3541 21.2471 33.3541Z" fill="#3C72FC"/>
<path d="M23.7083 32.3466L18.5716 37.4016C17.2085 38.7418 15.0007 38.7418 13.6414 37.4016C12.2784 36.0613 12.2784 33.89 13.6414 32.5535L18.7781 27.5022L23.7083 32.3466Z" fill="#3C72FC"/>
<path d="M9.40283 44.9996C11.3294 44.9996 12.8911 43.4637 12.8911 41.5694C12.8911 39.6748 11.3294 38.1389 9.40283 38.1389C7.4763 38.1389 5.91455 39.6748 5.91455 41.5694C5.91455 43.4637 7.4763 44.9996 9.40283 44.9996Z" fill="#3C72FC"/>
<path d="M10.3746 41.4813L9.49219 40.6134L15.3348 34.8718L16.2171 35.7394L10.3746 41.4813Z" fill="#3C72FC"/>
<path d="M15.4741 27.683C17.4006 27.683 18.9623 26.1472 18.9623 24.2527C18.9623 22.3583 17.4006 20.8225 15.4741 20.8225C13.5475 20.8225 11.9858 22.3583 11.9858 24.2527C11.9858 26.1472 13.5475 27.683 15.4741 27.683Z" fill="#3C72FC"/>
<path d="M17.9348 26.6793L12.7981 31.7305C11.4351 33.0707 9.22725 33.0707 7.86797 31.7305C6.50495 30.3902 6.50495 28.219 7.86797 26.8824L13.0046 21.8311L17.9348 26.6793Z" fill="#3C72FC"/>
<path d="M3.6333 39.3326C5.55983 39.3326 7.1216 37.7967 7.1216 35.9021C7.1216 34.0078 5.55983 32.4719 3.6333 32.4719C1.70678 32.4719 0.14502 34.0078 0.14502 35.9021C0.14502 37.7967 1.70678 39.3326 3.6333 39.3326Z" fill="#3C72FC"/>
<path d="M4.60504 35.8102L3.72266 34.946L9.5615 29.2007L10.4438 30.0684L4.60504 35.8102Z" fill="#3C72FC"/>
<path d="M15.4741 27.6838C17.4006 27.6838 18.9623 26.148 18.9623 24.2535C18.9623 22.359 17.4006 20.8232 15.4741 20.8232C13.5475 20.8232 11.9858 22.359 11.9858 24.2535C11.9858 26.148 13.5475 27.6838 15.4741 27.6838Z" fill="#3C72FC"/>
<path d="M13.0046 26.6798L7.86797 21.6285C6.50495 20.2882 6.50495 18.117 7.86797 16.7804C9.23099 15.44 11.4388 15.44 12.7981 16.7804L17.9348 21.8316L13.0046 26.6798Z" fill="#3C72FC"/>
<path d="M3.6333 16.0375C5.55983 16.0375 7.1216 14.5017 7.1216 12.6073C7.1216 10.7128 5.55983 9.177 3.6333 9.177C1.70678 9.177 0.14502 10.7128 0.14502 12.6073C0.14502 14.5017 1.70678 16.0375 3.6333 16.0375Z" fill="#3C72FC"/>
<path d="M9.5615 19.305L3.72266 13.5633L4.60504 12.6956L10.4438 18.441L9.5615 19.305Z" fill="#3C72FC"/>
</g>
</g>
<path d="M55.4943 39H47.9375L57.7528 9.90909H67.1136L76.929 39H69.3722L62.5398 17.2386H62.3125L55.4943 39ZM54.4858 27.5511H70.2812V32.892H54.4858V27.5511ZM80.1179 39V35.0369L90.2315 22.7216V22.5795H80.473V17.1818H98.5128V21.5284L89.1378 33.4602V33.6023H98.8537V39H80.1179ZM103.342 39V9.90909H110.288V20.9176H110.43C110.714 20.2547 111.117 19.6155 111.638 19C112.168 18.3845 112.84 17.8826 113.655 17.4943C114.479 17.0966 115.464 16.8977 116.609 16.8977C118.125 16.8977 119.54 17.2955 120.857 18.0909C122.182 18.8864 123.252 20.1127 124.067 21.7699C124.881 23.4271 125.288 25.5388 125.288 28.1051C125.288 30.5767 124.895 32.6458 124.109 34.3125C123.333 35.9792 122.282 37.2292 120.956 38.0625C119.64 38.8958 118.177 39.3125 116.567 39.3125C115.468 39.3125 114.517 39.1326 113.712 38.7727C112.907 38.4129 112.23 37.9394 111.68 37.3523C111.141 36.7652 110.724 36.1354 110.43 35.4631H110.217V39H103.342ZM110.146 28.0909C110.146 29.2652 110.303 30.2879 110.615 31.1591C110.937 32.0303 111.396 32.7074 111.993 33.1903C112.599 33.6638 113.323 33.9006 114.166 33.9006C115.018 33.9006 115.743 33.6638 116.339 33.1903C116.936 32.7074 117.386 32.0303 117.689 31.1591C118.001 30.2879 118.158 29.2652 118.158 28.0909C118.158 26.9167 118.001 25.8987 117.689 25.0369C117.386 24.1752 116.936 23.5076 116.339 23.0341C115.752 22.5606 115.028 22.3239 114.166 22.3239C113.314 22.3239 112.589 22.5559 111.993 23.0199C111.396 23.4839 110.937 24.1468 110.615 25.0085C110.303 25.8703 110.146 26.8977 110.146 28.0909ZM135.079 39.3693C133.687 39.3693 132.451 39.1373 131.371 38.6733C130.301 38.1998 129.454 37.4896 128.829 36.5426C128.213 35.5862 127.906 34.3883 127.906 32.9489C127.906 31.7367 128.119 30.714 128.545 29.8807C128.971 29.0473 129.558 28.3703 130.306 27.8494C131.054 27.3286 131.916 26.9356 132.891 26.6705C133.867 26.3958 134.908 26.2112 136.016 26.1165C137.257 26.0028 138.256 25.8845 139.013 25.7614C139.771 25.6288 140.32 25.4441 140.661 25.2074C141.012 24.9612 141.187 24.6155 141.187 24.1705V24.0994C141.187 23.3703 140.936 22.8068 140.434 22.4091C139.932 22.0114 139.255 21.8125 138.403 21.8125C137.484 21.8125 136.746 22.0114 136.187 22.4091C135.628 22.8068 135.273 23.3561 135.121 24.0568L128.715 23.8295C128.905 22.5038 129.392 21.3201 130.178 20.2784C130.974 19.2273 132.063 18.4034 133.445 17.8068C134.837 17.2008 136.509 16.8977 138.46 16.8977C139.852 16.8977 141.135 17.0634 142.309 17.3949C143.483 17.7169 144.506 18.1903 145.377 18.8153C146.248 19.4309 146.921 20.1884 147.394 21.0881C147.877 21.9877 148.119 23.0152 148.119 24.1705V39H141.585V35.9602H141.414C141.026 36.6989 140.529 37.3239 139.923 37.8352C139.326 38.3466 138.621 38.7301 137.806 38.9858C137.001 39.2415 136.092 39.3693 135.079 39.3693ZM137.224 34.8239C137.972 34.8239 138.644 34.6723 139.241 34.3693C139.847 34.0663 140.33 33.6496 140.69 33.1193C141.049 32.5795 141.229 31.9545 141.229 31.2443V29.1705C141.031 29.2746 140.789 29.3693 140.505 29.4545C140.23 29.5398 139.927 29.6203 139.596 29.696C139.264 29.7718 138.924 29.8381 138.573 29.8949C138.223 29.9517 137.887 30.0038 137.565 30.0511C136.911 30.1553 136.353 30.3163 135.888 30.5341C135.434 30.7519 135.084 31.036 134.837 31.3864C134.601 31.7273 134.482 32.1345 134.482 32.608C134.482 33.3277 134.738 33.8769 135.249 34.2557C135.77 34.6345 136.428 34.8239 137.224 34.8239ZM176.684 18.6307C176.589 17.589 176.168 16.7794 175.42 16.2017C174.681 15.6146 173.625 15.321 172.252 15.321C171.343 15.321 170.585 15.4394 169.979 15.6761C169.373 15.9129 168.919 16.2396 168.616 16.6562C168.313 17.0634 168.156 17.5322 168.147 18.0625C168.128 18.4981 168.213 18.8816 168.403 19.2131C168.602 19.5445 168.886 19.8381 169.255 20.0938C169.634 20.34 170.088 20.5578 170.619 20.7472C171.149 20.9366 171.746 21.1023 172.408 21.2443L174.908 21.8125C176.348 22.125 177.617 22.5417 178.715 23.0625C179.823 23.5833 180.751 24.2036 181.499 24.9233C182.257 25.643 182.83 26.4716 183.218 27.4091C183.606 28.3466 183.805 29.3977 183.815 30.5625C183.805 32.3996 183.341 33.9763 182.423 35.2926C181.504 36.6089 180.183 37.6174 178.46 38.3182C176.746 39.0189 174.676 39.3693 172.252 39.3693C169.818 39.3693 167.697 39.0047 165.888 38.2756C164.08 37.5464 162.674 36.4384 161.67 34.9517C160.666 33.465 160.15 31.5852 160.121 29.3125H166.854C166.911 30.25 167.162 31.0312 167.607 31.6562C168.052 32.2812 168.663 32.7547 169.44 33.0767C170.226 33.3987 171.135 33.5597 172.167 33.5597C173.114 33.5597 173.919 33.4318 174.582 33.1761C175.254 32.9205 175.77 32.5653 176.13 32.1108C176.49 31.6562 176.674 31.1354 176.684 30.5483C176.674 29.9991 176.504 29.5303 176.173 29.142C175.841 28.7443 175.33 28.4034 174.638 28.1193C173.957 27.8258 173.085 27.5559 172.025 27.3097L168.985 26.5994C166.466 26.0218 164.482 25.089 163.033 23.8011C161.585 22.5038 160.865 20.7519 160.874 18.5455C160.865 16.7462 161.348 15.1695 162.323 13.8153C163.299 12.4612 164.648 11.4053 166.371 10.6477C168.095 9.89015 170.06 9.51136 172.266 9.51136C174.52 9.51136 176.476 9.89489 178.133 10.6619C179.799 11.4195 181.092 12.4848 182.011 13.858C182.929 15.2311 183.398 16.822 183.417 18.6307H176.684ZM197.55 39.4119C195.259 39.4119 193.289 38.9432 191.641 38.0057C190.003 37.0587 188.739 35.7424 187.849 34.0568C186.968 32.3617 186.528 30.3968 186.528 28.1619C186.528 25.9176 186.968 23.9527 187.849 22.267C188.739 20.572 190.003 19.2557 191.641 18.3182C193.289 17.3712 195.259 16.8977 197.55 16.8977C199.842 16.8977 201.807 17.3712 203.445 18.3182C205.093 19.2557 206.357 20.572 207.238 22.267C208.128 23.9527 208.573 25.9176 208.573 28.1619C208.573 30.3968 208.128 32.3617 207.238 34.0568C206.357 35.7424 205.093 37.0587 203.445 38.0057C201.807 38.9432 199.842 39.4119 197.55 39.4119ZM197.593 34.1705C198.426 34.1705 199.132 33.9148 199.71 33.4034C200.287 32.892 200.728 32.1818 201.031 31.2727C201.343 30.3636 201.499 29.3125 201.499 28.1193C201.499 26.9072 201.343 25.8466 201.031 24.9375C200.728 24.0284 200.287 23.3182 199.71 22.8068C199.132 22.2955 198.426 22.0398 197.593 22.0398C196.731 22.0398 196.002 22.2955 195.406 22.8068C194.818 23.3182 194.369 24.0284 194.056 24.9375C193.753 25.8466 193.602 26.9072 193.602 28.1193C193.602 29.3125 193.753 30.3636 194.056 31.2727C194.369 32.1818 194.818 32.892 195.406 33.4034C196.002 33.9148 196.731 34.1705 197.593 34.1705ZM219.077 9.90909V39H212.131V9.90909H219.077ZM237.575 29.5824V17.1818H244.507V39H237.888V34.9375H237.661C237.178 36.2727 236.354 37.3333 235.189 38.1193C234.034 38.8958 232.637 39.2841 230.999 39.2841C229.512 39.2841 228.205 38.9432 227.078 38.2614C225.951 37.5795 225.075 36.6278 224.45 35.4062C223.825 34.1752 223.508 32.7358 223.499 31.0881V17.1818H230.445V29.7244C230.454 30.9081 230.767 31.8409 231.382 32.5227C231.998 33.2045 232.836 33.5455 233.896 33.5455C234.588 33.5455 235.208 33.3939 235.757 33.0909C236.316 32.7784 236.756 32.3286 237.078 31.7415C237.41 31.1449 237.575 30.4252 237.575 29.5824ZM261.244 17.1818V22.2955H247.479V17.1818H261.244ZM250.363 11.9545H257.309V32.1392C257.309 32.5653 257.375 32.911 257.508 33.1761C257.65 33.4318 257.853 33.6165 258.119 33.7301C258.384 33.8343 258.701 33.8864 259.07 33.8864C259.335 33.8864 259.615 33.8627 259.908 33.8153C260.211 33.7585 260.439 33.7112 260.59 33.6733L261.641 38.6875C261.31 38.7822 260.841 38.9006 260.235 39.0426C259.638 39.1847 258.924 39.2746 258.09 39.3125C256.461 39.3883 255.065 39.1989 253.9 38.7443C252.745 38.2803 251.859 37.5606 251.244 36.5852C250.638 35.6098 250.344 34.3835 250.363 32.9062V11.9545ZM264.788 39V17.1818H271.734V39H264.788ZM268.268 14.6392C267.292 14.6392 266.454 14.3172 265.754 13.6733C265.053 13.0199 264.702 12.2339 264.702 11.3153C264.702 10.4062 265.053 9.62973 265.754 8.9858C266.454 8.33239 267.292 8.00568 268.268 8.00568C269.253 8.00568 270.091 8.33239 270.782 8.9858C271.483 9.62973 271.833 10.4062 271.833 11.3153C271.833 12.2339 271.483 13.0199 270.782 13.6733C270.091 14.3172 269.253 14.6392 268.268 14.6392ZM286.339 39.4119C284.048 39.4119 282.078 38.9432 280.43 38.0057C278.792 37.0587 277.528 35.7424 276.638 34.0568C275.757 32.3617 275.317 30.3968 275.317 28.1619C275.317 25.9176 275.757 23.9527 276.638 22.267C277.528 20.572 278.792 19.2557 280.43 18.3182C282.078 17.3712 284.048 16.8977 286.339 16.8977C288.631 16.8977 290.596 17.3712 292.234 18.3182C293.882 19.2557 295.146 20.572 296.027 22.267C296.917 23.9527 297.362 25.9176 297.362 28.1619C297.362 30.3968 296.917 32.3617 296.027 34.0568C295.146 35.7424 293.882 37.0587 292.234 38.0057C290.596 38.9432 288.631 39.4119 286.339 39.4119ZM286.382 34.1705C287.215 34.1705 287.921 33.9148 288.499 33.4034C289.076 32.892 289.517 32.1818 289.82 31.2727C290.132 30.3636 290.288 29.3125 290.288 28.1193C290.288 26.9072 290.132 25.8466 289.82 24.9375C289.517 24.0284 289.076 23.3182 288.499 22.8068C287.921 22.2955 287.215 22.0398 286.382 22.0398C285.52 22.0398 284.791 22.2955 284.195 22.8068C283.607 23.3182 283.158 24.0284 282.845 24.9375C282.542 25.8466 282.391 26.9072 282.391 28.1193C282.391 29.3125 282.542 30.3636 282.845 31.2727C283.158 32.1818 283.607 32.892 284.195 33.4034C284.791 33.9148 285.52 34.1705 286.382 34.1705ZM307.866 26.5568V39H300.92V17.1818H307.526V21.1875H307.767C308.25 19.8523 309.074 18.8059 310.239 18.0483C311.403 17.2812 312.791 16.8977 314.401 16.8977C315.935 16.8977 317.265 17.2434 318.392 17.9347C319.528 18.6165 320.409 19.5729 321.034 20.804C321.669 22.0256 321.981 23.4555 321.972 25.0938V39H315.026V26.4574C315.035 25.2453 314.727 24.2983 314.102 23.6165C313.487 22.9347 312.63 22.5938 311.531 22.5938C310.802 22.5938 310.158 22.7547 309.599 23.0767C309.05 23.3892 308.624 23.839 308.321 24.4261C308.027 25.0133 307.876 25.7235 307.866 26.5568Z" fill="white"/>
<defs>
<clipPath id="clip0_241_52">
<rect width="47" height="42" fill="white" transform="translate(0 3)"/>
</clipPath>
</defs>
</svg>
