<?xml version="1.0" encoding="utf-8"?>
<!DOCTYPE svg PUBLIC "-//W3C//DTD SVG 1.1//EN" "http://www.w3.org/Graphics/SVG/1.1/DTD/svg11.dtd">
<svg version="1.1" xmlns="http://www.w3.org/2000/svg" width="416px" height="305px" viewBox="0 0 416 305" preserveAspectRatio="xMidYMid meet">
 <g fill="#3c72fc">
  <path d="M211.7 303.9 c-2.1 -0.5 -5 -1.5 -6.5 -2.3 -1.5 -0.8 -26.5 -25.3 -55.7 -54.5 l-53 -53.1 33.5 0 33.4 0 21.1 20.9 c11.5 11.6 22.3 21.5 23.8 22 4.1 1.6 11.2 1.3 15.5 -0.5 2.3 -0.9 11.2 -9 24.2 -22 l20.6 -20.4 33.3 0 33.4 0 -54.2 53.9 c-38.2 38 -55.2 54.3 -57.4 55 -5.6 1.7 -8.1 1.9 -12 1z"/>
  <path d="M91.2 170.9 c-1.9 -0.4 -4.7 -1.9 -6.3 -3.5 l-2.9 -2.8 0 3.2 c0 2.5 -0.4 3.2 -2 3.2 -1.9 0 -2 -0.7 -2 -22 0 -21.3 0.1 -22 2 -22 1.9 0 2 0.7 2 9.2 l0 9.2 2.9 -2.8 c5.3 -5.1 14.6 -5.3 19.8 -0.4 7.4 6.7 6.9 20.3 -0.9 26.1 -3.2 2.4 -8.5 3.5 -12.6 2.6z m7.3 -4.3 c4.3 -1.8 6.5 -6.1 6.5 -12.6 0 -4.3 -0.5 -5.6 -2.8 -8 -3.5 -3.5 -9 -4.7 -12.8 -2.8 -9.2 4.5 -9.5 18.5 -0.4 23 4.2 2.2 5.1 2.2 9.5 0.4z"/>
  <path d="M130.2 170.9 c-3.7 -0.8 -7.7 -4 -9.8 -8.1 -1.9 -3.6 -1.8 -12.2 0.2 -16.3 4 -8.5 16.4 -10.6 23 -4 l2.4 2.4 0 -2.9 c0 -2.5 0.4 -3 2.5 -3 l2.5 0 0 16 0 16 -2.5 0 c-2.1 0 -2.5 -0.5 -2.5 -3.2 -0.1 -2.8 -0.3 -3.1 -1.3 -1.8 -3.4 4.3 -8.9 6.1 -14.5 4.9z m9.3 -4.3 c8.9 -3.7 8.7 -19.5 -0.2 -23.3 -4.9 -2 -9.6 -1 -12.7 2.8 -6 7.1 -3.7 17.5 4.4 20.8 3.4 1.4 4.6 1.3 8.5 -0.3z"/>
  <path d="M3.2 169.8 c0.3 -0.7 3.6 -10 7.4 -20.5 6.6 -18.4 7 -19.3 9.5 -19.3 3.1 0 2.4 -1.5 11.3 23.3 6.2 17.3 6.3 17.7 4.1 17.7 -1.8 0 -2.7 -1 -4.1 -4.5 l-1.7 -4.5 -9.7 0 -9.7 0 -1.3 4.5 c-1.1 3.8 -1.7 4.5 -3.7 4.5 -1.6 0 -2.4 -0.5 -2.1 -1.2z m24.8 -12.4 c0 -2 -7.5 -21.3 -8 -20.7 -0.4 0.5 -2.3 5.4 -4.3 11.1 l-3.6 10.2 7.9 0 c4.4 0 8 -0.3 8 -0.6z"/>
  <path d="M46 169 c0 -1.1 3.6 -7.4 8 -14 l8 -12 -8 0 c-7.3 0 -8 -0.2 -8 -2 0 -1.9 0.7 -2 10.5 -2 9.9 0 10.5 0.1 10.5 2 0 1.1 -3.6 7.4 -8 14 l-8 12 8 0 c7.3 0 8 0.2 8 2 0 1.9 -0.7 2 -10.5 2 -9.9 0 -10.5 -0.1 -10.5 -2z"/>
  <path d="M149.5 58.9 c57.1 -57.1 58.1 -58 68 -58.1 7.7 -0.1 12.6 2.8 23 13.2 l9 9 -44.5 44.5 -44.5 44.5 -32 0 -32 0 53 -53.1z"/>
 </g>
 <g fill="#0c0c0c">
  <path d="M211.3 170.9 c-5 -1 -8.3 -3.6 -10.4 -8.2 -5.3 -11.7 1.8 -23.8 14 -24 9.5 -0.1 16.1 6.5 16.1 16.2 0 11.2 -8.8 18.3 -19.7 16z m10.7 -5.8 c5.6 -4.1 6.3 -13.2 1.4 -19 -4.7 -5.7 -14.5 -4.7 -17.8 1.8 -1.9 3.6 -2.1 10.6 -0.3 14.1 2.8 5.7 11.2 7.2 16.7 3.1z"/>
  <path d="M352 171 c-7.9 -1.4 -12.5 -7.2 -12.5 -16 0 -11.5 9.1 -18.6 20.3 -15.8 7.8 1.9 13.1 11 11.3 19.1 -2.2 9.2 -9.8 14.3 -19.1 12.7z m7.5 -4.4 c9.3 -3.9 9.9 -18.8 1 -23 -4.1 -2 -5.6 -2 -10 -0.2 -9 3.8 -8.6 20.8 0.7 23.5 4.5 1.3 4.4 1.3 8.3 -0.3z"/>
  <path d="M167.8 169.3 c-1.5 -1 -3.4 -3.1 -4.2 -4.8 -1.4 -2.8 -1.4 -3 0.5 -3.3 1.4 -0.3 3.1 0.8 4.9 3 2.4 2.9 3.4 3.3 7.5 3.3 5.3 0 8.5 -2.7 8.5 -7.3 0 -3.9 -2.6 -6 -10.3 -8.3 -8.7 -2.6 -11.7 -5.4 -11.7 -10.9 0 -2.3 0.5 -5 1 -6.1 1.7 -3 6.4 -4.9 12.6 -4.9 5 0 5.9 0.3 9 3.4 1.9 1.9 3.4 3.9 3.4 4.5 0 2.1 -4.1 1.1 -6.5 -1.6 -1.9 -2.3 -3.1 -2.8 -7 -2.8 -3.7 0 -5.1 0.5 -6.6 2.4 -3.9 4.8 -1.2 9.7 6.6 12 10.3 3.1 14.5 6.5 14.5 11.6 0 3.1 -3 8.1 -5.9 9.8 -3.8 2.2 -12.7 2.2 -16.3 0z"/>
  <path d="M242 149 c0 -21.3 0.1 -22 2 -22 1.9 0 2 0.7 2 22 0 21.3 -0.1 22 -2 22 -1.9 0 -2 -0.7 -2 -22z"/>
  <path d="M264.2 169.4 c-4.2 -2.9 -5.2 -6.5 -5.2 -18.9 0 -10.8 0.1 -11.5 2 -11.5 1.9 0 2 0.7 2 10 0 12.4 1.4 16.3 6.3 17.9 4.4 1.5 7.8 0.7 10.9 -2.6 2.1 -2.2 2.3 -3.5 2.6 -13.9 0.3 -10.4 0.5 -11.4 2.3 -11.4 1.8 0 1.9 0.9 1.9 16 0 15.3 -0.1 16 -2 16 -1.3 0 -2 -0.7 -2 -2 0 -1.1 -0.3 -2 -0.6 -2 -0.3 0 -1.7 0.9 -3.1 2 -3.2 2.5 -11.8 2.7 -15.1 0.4z"/>
  <path d="M303.5 168.5 c-2.4 -2.3 -2.5 -3 -2.5 -14 0 -10.8 -0.1 -11.5 -2 -11.5 -1.3 0 -2 -0.7 -2 -2 0 -1.3 0.7 -2 2 -2 1.7 0 2 -0.7 2 -4 0 -3.6 0.3 -4 2.5 -4 2.3 0 2.5 0.4 2.5 4 l0 4 4 0 c3.3 0 4 0.3 4 2 0 1.7 -0.7 2 -4 2 l-4.1 0 0.3 11.8 0.3 11.7 3.8 0.3 c2.9 0.3 3.7 0.7 3.7 2.3 0 3 -7.3 2.7 -10.5 -0.6z"/>
  <path d="M324 155 l0 -16 2.5 0 2.5 0 0 16 0 16 -2.5 0 -2.5 0 0 -16z"/>
  <path d="M382 155 l0 -16 2.5 0 c1.8 0 2.5 0.5 2.5 2 0 2.1 0 2.1 2.8 0.1 6.1 -4.4 14 -3.1 18.6 3.2 1.8 2.4 2.2 4.6 2.5 14.8 l0.3 11.9 -2.6 0 -2.6 0 0 -11.4 c0 -10.7 -0.2 -11.7 -2.4 -14.3 -3.5 -4 -10.7 -4 -14.2 0 -2.2 2.6 -2.4 3.6 -2.4 14.3 l0 11.4 -2.5 0 -2.5 0 0 -16z"/>
  <path d="M323.9 131.4 c-1.5 -1.8 -0.2 -4.7 2.4 -5.2 2.5 -0.5 4 3.3 2.1 5.2 -1.9 2 -2.8 2 -4.5 0z"/>
 </g>
</svg>